<svg width="19" height="22" viewBox="0 0 19 22" fill="none" xmlns="http://www.w3.org/2000/svg">
<path d="M12.1181 8.00068C12.5789 6.57366 12.8116 5.32449 12.8116 4.24741C12.8116 1.84874 11.8725 0 10.3116 0C9.4648 0 9.2027 0.50424 8.8748 1.74683C8.892 1.6819 8.7119 2.38078 8.6593 2.56803C8.5583 2.92677 8.3825 3.53752 8.1322 4.39904C8.1255 4.42212 8.1157 4.44387 8.1028 4.46395L5.23609 8.94961C4.55804 10.0106 3.55757 10.8261 2.38169 11.2763L1.12446 11.7577C0.331091 12.0614 -0.129529 12.8911 0.0321805 13.7251L0.71834 17.2638C0.88548 18.1258 1.53879 18.8118 2.39159 19.0208L10.6411 21.0427C13.1723 21.6631 15.7307 20.1282 16.3746 17.6028L17.9485 11.4302C18.3237 9.95847 17.4348 8.46118 15.9632 8.08594C15.7411 8.02932 15.5129 8.00068 15.2837 8.00068H12.1181Z" fill="#212121"/>
</svg>
