<svg width="257" height="79" viewBox="0 0 257 79" fill="none" xmlns="http://www.w3.org/2000/svg">
<path d="M28.7969 59.4453C28.7969 60.0234 28.7266 60.6328 28.5859 61.2734C28.4609 61.9141 28.2578 62.5547 27.9766 63.1953C27.6953 63.8203 27.3281 64.4219 26.875 65C26.4375 65.5781 25.8984 66.0938 25.2578 66.5469C24.6328 66.9844 23.9062 67.3359 23.0781 67.6016C22.25 67.8672 21.3125 68 20.2656 68H9.27344C8.69531 68 8.08594 67.9375 7.44531 67.8125C6.80469 67.6719 6.16406 67.4609 5.52344 67.1797C4.89844 66.8984 4.29688 66.5391 3.71875 66.1016C3.14062 65.6484 2.625 65.1094 2.17188 64.4844C1.73438 63.8438 1.38281 63.1094 1.11719 62.2812C0.851562 61.4375 0.71875 60.4922 0.71875 59.4453V31.9531H6.8125V59.4453C6.8125 60.1953 7.04688 60.7969 7.51562 61.25C7.98438 61.6875 8.57031 61.9062 9.27344 61.9062H20.2656C21.0312 61.9062 21.625 61.6797 22.0469 61.2266C22.4844 60.7734 22.7031 60.1797 22.7031 59.4453V51.1953C22.7031 50.4297 22.4766 49.8359 22.0234 49.4141C21.5703 48.9766 20.9844 48.7578 20.2656 48.7578H9.27344V42.6641H20.2656C20.8438 42.6641 21.4531 42.7344 22.0938 42.875C22.7344 43 23.3672 43.2031 23.9922 43.4844C24.6328 43.7656 25.2422 44.1328 25.8203 44.5859C26.3984 45.0234 26.9062 45.5625 27.3438 46.2031C27.7812 46.8281 28.1328 47.5547 28.3984 48.3828C28.6641 49.2109 28.7969 50.1484 28.7969 51.1953V59.4453ZM99.9531 68H44.3594C43.4844 68 42.6719 67.8438 41.9219 67.5312C41.1719 67.2188 40.5156 66.7969 39.9531 66.2656C39.4219 65.7031 39 65.0469 38.6875 64.2969C38.375 63.5469 38.2188 62.7344 38.2188 61.8594V0.78125H50.4062V55.8125H99.9531V68ZM132.25 59.4453C132.25 60.4922 132.117 61.4375 131.852 62.2812C131.586 63.1094 131.234 63.8438 130.797 64.4844C130.359 65.1094 129.852 65.6484 129.273 66.1016C128.695 66.5391 128.086 66.8984 127.445 67.1797C126.82 67.4609 126.18 67.6719 125.523 67.8125C124.883 67.9375 124.273 68 123.695 68H112.703C111.859 68 110.938 67.8516 109.938 67.5547C108.938 67.2578 108.008 66.7734 107.148 66.1016C106.305 65.4141 105.594 64.5312 105.016 63.4531C104.453 62.3594 104.172 61.0234 104.172 59.4453V51.1953C104.172 49.6328 104.453 48.3125 105.016 47.2344C105.594 46.1406 106.305 45.2578 107.148 44.5859C108.008 43.8984 108.938 43.4062 109.938 43.1094C110.938 42.8125 111.859 42.6641 112.703 42.6641H123.695C125.258 42.6641 126.586 42.9453 127.68 43.5078C128.773 44.0703 129.656 44.7812 130.328 45.6406C131 46.4844 131.484 47.4062 131.781 48.4062C132.094 49.4062 132.25 50.3359 132.25 51.1953V59.4453ZM126.156 51.2422C126.156 50.3984 125.945 49.7734 125.523 49.3672C125.102 48.9609 124.492 48.7578 123.695 48.7578H112.75C111.938 48.7578 111.32 48.9688 110.898 49.3906C110.477 49.7969 110.266 50.3984 110.266 51.1953V59.4453C110.266 60.2422 110.477 60.8516 110.898 61.2734C111.32 61.6953 111.938 61.9062 112.75 61.9062H123.695C124.523 61.9062 125.141 61.6953 125.547 61.2734C125.953 60.8516 126.156 60.2422 126.156 59.4453V51.2422ZM165.016 70.4375C165.016 71.4844 164.883 72.4219 164.617 73.25C164.352 74.0938 164 74.8281 163.562 75.4531C163.125 76.0938 162.617 76.6328 162.039 77.0703C161.461 77.5234 160.852 77.8906 160.211 78.1719C159.586 78.4531 158.945 78.6562 158.289 78.7812C157.648 78.9219 157.039 78.9922 156.461 78.9922H145.469V72.8984H156.461C157.289 72.8984 157.906 72.6875 158.312 72.2656C158.719 71.8438 158.922 71.2344 158.922 70.4375V51.1953C158.922 50.3984 158.719 49.7969 158.312 49.3906C157.906 48.9688 157.289 48.7578 156.461 48.7578H145.469C144.719 48.7578 144.125 48.9922 143.688 49.4609C143.25 49.9141 143.031 50.4922 143.031 51.1953V59.4453C143.031 60.2422 143.242 60.8516 143.664 61.2734C144.086 61.6953 144.703 61.9062 145.516 61.9062H156.461V68H145.469C144.891 68 144.281 67.9375 143.641 67.8125C143 67.6719 142.359 67.4609 141.719 67.1797C141.094 66.8984 140.492 66.5391 139.914 66.1016C139.336 65.6484 138.828 65.1094 138.391 64.4844C137.953 63.8438 137.602 63.1094 137.336 62.2812C137.07 61.4375 136.938 60.4922 136.938 59.4453V51.1953C136.938 50.6172 137 50.0078 137.125 49.3672C137.266 48.7266 137.477 48.0938 137.758 47.4688C138.039 46.8281 138.398 46.2188 138.836 45.6406C139.289 45.0625 139.828 44.5547 140.453 44.1172C141.094 43.6797 141.828 43.3281 142.656 43.0625C143.484 42.7969 144.422 42.6641 145.469 42.6641H156.461C157.039 42.6641 157.648 42.7344 158.289 42.875C158.945 43 159.586 43.2031 160.211 43.4844C160.852 43.7656 161.461 44.1328 162.039 44.5859C162.617 45.0234 163.125 45.5625 163.562 46.2031C164 46.8281 164.352 47.5547 164.617 48.3828C164.883 49.2109 165.016 50.1484 165.016 51.1953V70.4375ZM197.477 34.3906L176.266 68H169.727L190.961 34.3906H197.477ZM218.734 68H206.547V0.78125H218.734V68ZM256.844 68H250.75V53.9375C250.75 53.1406 250.609 52.4297 250.328 51.8047C250.062 51.1641 249.695 50.6172 249.227 50.1641C248.758 49.7109 248.203 49.3672 247.562 49.1328C246.938 48.8828 246.258 48.7578 245.523 48.7578H234.859V68H228.766V45.6875C228.766 45.2656 228.844 44.875 229 44.5156C229.156 44.1406 229.375 43.8203 229.656 43.5547C229.938 43.2734 230.266 43.0547 230.641 42.8984C231.016 42.7422 231.414 42.6641 231.836 42.6641H245.57C246.336 42.6641 247.141 42.75 247.984 42.9219C248.844 43.0938 249.688 43.375 250.516 43.7656C251.359 44.1406 252.156 44.625 252.906 45.2188C253.672 45.7969 254.344 46.5078 254.922 47.3516C255.516 48.1797 255.984 49.1406 256.328 50.2344C256.672 51.3281 256.844 52.5625 256.844 53.9375V68Z" fill="black"/>
</svg>
